<?xml version="1.0" encoding="UTF-8" standalone="no"?>
<svg
   xmlns:dc="http://purl.org/dc/elements/1.1/"
   xmlns:cc="http://creativecommons.org/ns#"
   xmlns:rdf="http://www.w3.org/1999/02/22-rdf-syntax-ns#"
   xmlns:svg="http://www.w3.org/2000/svg"
   xmlns="http://www.w3.org/2000/svg"
   xmlns:sodipodi="http://sodipodi.sourceforge.net/DTD/sodipodi-0.dtd"
   xmlns:inkscape="http://www.inkscape.org/namespaces/inkscape"
   inkscape:version="1.0 (1.0+r73+1)"
   sodipodi:docname="MSCcolor.svg"
   id="svg16"
   preserveAspectRatio="xMidYMid meet"
   viewBox="0 0 1708.000000 453.000000"
   height="453.000000pt"
   width="1708.000000pt"
   version="1.0">
  <defs
     id="defs20" />
  <sodipodi:namedview
     inkscape:current-layer="svg16"
     inkscape:window-maximized="1"
     inkscape:window-y="27"
     inkscape:window-x="70"
     inkscape:cy="213.74472"
     inkscape:cx="2666.7231"
     inkscape:zoom="1.0389344"
     showgrid="false"
     id="namedview18"
     inkscape:window-height="1016"
     inkscape:window-width="1850"
     inkscape:pageshadow="2"
     inkscape:pageopacity="0"
     guidetolerance="10"
     gridtolerance="10"
     objecttolerance="10"
     borderopacity="1"
     bordercolor="#666666"
     pagecolor="#ffffff" />
  <metadata
     id="metadata2">
Created by potrace 1.16, written by Peter Selinger 2001-2019
<rdf:RDF>
  <cc:Work
     rdf:about="">
    <dc:format>image/svg+xml</dc:format>
    <dc:type
       rdf:resource="http://purl.org/dc/dcmitype/StillImage" />
  </cc:Work>
</rdf:RDF>
</metadata>
  <g
     id="g14"
     stroke="none"
     fill="#000000"
     transform="translate(0.000000,453.000000) scale(0.100000,-0.100000)">
    <path
       id="path4"
       d="M16768 4510 c-48 -14 -94 -49 -122 -90 -118 -178 34 -404 242 -359 135 29 211 164 170 303 -16 54 -90 128 -144 144 -46 13 -105 14 -146 2z m178 -45 c76 -44 115 -137 94 -224 -32 -133 -181 -201 -301 -138 -159 84 -139 319 33 384 47 18 123 8 174 -22z" />
    <path
       id="path6"
       d="M16740 4296 l0 -126 24 0 c21 0 25 5 28 38 2 29 7 38 25 40 16 2 29 -7 49 -37 21 -32 33 -41 56 -41 31 0 31 2 -4 53 l-20 27 26 31 c32 38 33 70 2 106 -22 25 -31 28 -105 31 l-81 4 0 -126z" />
    <path
       id="path8"
       d="M1940 4478 c-6 -13 -442 -1022 -969 -2243 l-959 -2220 661 -3 c364 -1 664 1 667 5 4 5 330 725 726 1601 519 1150 720 1586 722 1565 1 -15 -45 -723 -103 -1573 -58 -850 -105 -1557 -105 -1573 l0 -27 677 2 677 3 1041 1588 c573 873 1047 1593 1054 1600 9 9 9 5 2 -18 -11 -33 -885 -3103 -896 -3147 l-7 -28 668 0 669 0 638 2238 c350 1230 637 2240 637 2245 0 4 -529 6 -1176 5 l-1177 -3 -459 -770 c-252 -423 -581 -974 -729 -1223 -149 -250 -272 -452 -274 -450 -2 2 39 548 90 1213 52 666 95 1216 95 1223 0 9 -223 12 -1080 12 l-1080 0 -10 -22z" />
    <path
       id="path10"
       d="M8925 4489 c-366 -53 -686 -292 -845 -631 -32 -69 -212 -664 -312 -1033 -146 -541 176 -1004 747 -1074 58 -7 354 -11 825 -12 542 0 744 -3 769 -12 46 -16 74 -55 73 -104 -1 -57 -99 -391 -127 -435 -29 -43 -77 -81 -124 -97 -25 -8 -378 -11 -1290 -11 l-1256 0 -149 -523 c-82 -287 -151 -528 -153 -534 -4 -10 328 -13 1639 -13 1614 0 1646 0 1724 20 104 27 298 123 404 201 159 117 304 287 371 434 44 97 286 962 299 1070 53 422 -203 852 -600 1009 -159 63 -117 60 -930 66 l-745 5 -43 23 c-44 24 -81 81 -82 127 0 28 68 261 87 299 29 58 83 114 130 138 l48 23 1169 5 1169 5 192 420 c105 231 214 471 243 533 l51 112 -1612 -1 c-887 -1 -1639 -5 -1672 -10z" />
    <path
       id="path12"
       d="M13475 4489 c-388 -56 -730 -328 -874 -695 -29 -76 -780 -2715 -797 -2802 -80 -416 152 -800 563 -932 171 -55 138 -54 1373 -51 1306 4 1204 -3 1405 95 191 93 353 226 477 390 94 126 126 206 237 596 56 195 101 358 101 363 0 4 -276 7 -614 7 l-614 0 -42 -124 c-48 -146 -80 -194 -147 -227 l-48 -24 -605 0 -605 0 -39 24 c-43 27 -66 71 -66 128 0 47 543 1948 578 2022 14 30 45 74 69 98 77 74 69 73 723 73 601 0 621 -1 667 -43 39 -35 38 -71 -8 -238 -23 -85 -44 -160 -46 -166 -4 -10 123 -13 614 -13 l618 0 55 193 55 192 0 175 c0 153 -3 185 -23 254 -106 367 -403 637 -769 701 -73 13 -245 15 -1132 14 -575 -1 -1073 -5 -1106 -10z" />
  </g>
  <path
     transform="scale(0.75000001)"
     id="path22"
     d="M 30.177522,600.86766 C 15.541234,600.54013 3.8465596,599.56715 4.1893564,598.7055 4.5321532,597.84387 62.340239,464.02967 132.65177,301.34063 L 260.49092,5.5424063 h 143.11153 c 89.57942,0 143.11155,0.6873391 143.11155,1.837516 0,1.0106337 -5.17087,69.6627037 -11.49085,152.5601577 -14.10514,185.01366 -13.15434,170.93566 -11.54467,170.93566 1.20027,0 47.46423,-76.89042 158.9586,-264.188193 l 36.36884,-61.0954894 155.65642,-0.024826 155.65646,-0.024826 -1.3119,5.2938854 c -0.7216,2.911637 -26.0526,92.354239 -56.29119,198.761339 -30.23861,106.4071 -67.65489,238.08048 -83.14731,292.6075 l -28.16799,99.14004 -88.04142,0.50068 c -48.42279,0.27538 -88.04144,0.024 -88.04144,-0.55861 0,-0.58259 25.6058,-90.90021 56.90177,-200.70579 68.95214,-241.92675 64.41781,-225.63941 62.80991,-225.61304 -1.54031,0.0252 -46.96108,68.59379 -182.33632,275.26039 -53.74961,82.05522 -97.90572,149.42702 -98.12471,149.71512 -0.219,0.28809 -40.88924,1.07986 -90.37831,1.75948 l -89.98012,1.23567 1.19959,-12.34725 c 0.65978,-6.79097 6.77722,-97.67505 13.5943,-201.9646 6.8171,-104.28955 12.71318,-194.16529 13.10242,-199.72387 1.4789,-21.11944 10.4203,-39.81873 -143.93064,301.00485 l -49.7909,109.94371 -17.29865,1.22789 c -16.47068,1.16912 -73.300991,1.07703 -130.908368,-0.21214 z"
     style="fill:#e6e6e6;stroke-width:1.92505" />
  <path
     transform="scale(0.75000001)"
     id="path24"
     d="m 966.1771,600.87407 -20.41067,-0.61592 19.65327,-68.75828 19.65326,-68.75825 170.16174,-1.52023 170.1617,-1.52023 7.7002,-5.28759 c 6.4385,-4.42115 8.5337,-7.64193 12.7867,-19.65532 2.7975,-7.90225 7.048,-22.42555 9.4455,-32.27401 l 4.3591,-17.90629 -3.8439,-5.14848 c -2.1142,-2.83165 -5.9315,-5.73245 -8.483,-6.4462 -2.5515,-0.71373 -46.2202,-1.40642 -97.0415,-1.53927 -50.8213,-0.13283 -100.7324,-1.05221 -110.9136,-2.043 -54.8993,-5.34261 -94.0253,-37.46619 -104.8401,-86.07692 -5.8555,-26.3193 -2.056,-45.85897 28.3735,-145.9158 13.8119,-45.415409 19.1672,-57.542307 33.5009,-75.861354 19.9588,-25.508247 48.7364,-44.144218 80.5541,-52.165672 14.7634,-3.7219533 21.8123,-3.8388477 231.4872,-3.8388477 118.9431,0 216.2601,0.580972 216.2601,1.291049 0,1.4704543 -52.0134,116.1455747 -59.0068,130.0935647 l -4.5847,9.14399 h -155.0296 c -171.9564,0 -159.8862,-0.92646 -172.699,13.25569 -5.0643,5.60563 -8.2905,12.12019 -11.74,23.70647 -7.135,23.96549 -7.5852,27.50138 -4.3083,33.83828 6.601,12.76485 2.6513,12.29662 116.4892,13.80975 l 103.1869,1.37156 13.2239,5.1356 c 46.8305,18.18695 78.3195,58.13986 84.5162,107.23349 2.5974,20.57768 0.7796,30.93893 -16.0297,91.36908 -24.0984,86.63482 -28.2174,95.28145 -59.3316,124.55148 -12.8977,12.13327 -19.9572,16.88532 -39.6462,26.68776 -23.7357,11.81709 -24.1529,11.9403 -45.6946,13.49065 -20.116,1.44777 -361.8335,1.74369 -407.9102,0.35325 z"
     style="fill:#e6e6e6;stroke-width:1.92505" />
  <path
     transform="scale(0.75000001)"
     id="path26"
     d="m 1673.8304,600.31484 c -49.3542,-5.38428 -91.4828,-43.08684 -99.1877,-88.76706 -4.5748,-27.12229 -7.035,-16.99657 67.7099,-278.68623 20.0847,-70.31884 38.5292,-132.80285 40.9878,-138.853347 17.0931,-42.066491 61.3444,-77.479883 108.077,-86.4918584 8.0969,-1.5614237 54.259,-2.0253189 159.6201,-1.6040634 l 148.2288,0.5926498 15.6075,6.021888 c 29.7841,11.491689 52.8746,30.534535 67.8573,55.962164 11.9639,20.304389 15.9277,34.507707 17.085,61.219107 0.8592,19.83204 0.4217,25.07533 -3.0921,37.0572 -2.251,7.67613 -5.882,20.08739 -8.0687,27.58056 l -3.9759,13.62396 -79.6052,-0.62987 c -43.7829,-0.34644 -80.0766,-1.10211 -80.6527,-1.67928 -0.5762,-0.57717 1.085,-8.80067 3.6915,-18.27444 6.4395,-23.40551 6.3248,-32.48655 -0.4666,-36.93947 -4.7161,-3.09219 -12.2752,-3.47012 -80.3708,-4.01824 -92.3273,-0.74316 -93.7093,-0.61135 -104.25,9.94347 -9.4211,9.43375 -10.4865,12.49581 -40.2486,115.68363 -36.5094,126.5815 -47.086,166.37163 -45.8569,172.51731 0.6304,3.1522 3.6999,7.87998 6.8209,10.50619 l 5.6747,4.77493 h 82.8835 c 80.8488,0 83.0441,-0.0993 89.4269,-4.04408 7.2204,-4.46246 12.5275,-13.58758 18.9201,-32.53185 l 4.2224,-12.51282 72.974,-0.5656 c 40.1357,-0.31107 76.5264,-0.0608 80.8682,0.55614 l 7.8943,1.12175 -8.4818,30.24464 c -20.7545,74.00692 -27.7674,88.85577 -54.0127,114.36485 -16.4042,15.94397 -30.1224,25.40282 -51.7117,35.65551 -13.9357,6.61804 -14.9634,6.79926 -47.4281,8.36396 -41.0019,1.97614 -272.6674,1.8236 -291.1404,-0.19174 z"
     style="fill:#e6e6e6;stroke-width:1.92505" />
  <path
     transform="scale(0.75000001)"
     id="path36"
     d="M 2232.012,31.219285 V 14.433024 h 0.1409 c 0.078,0 2.2645,0.10535 4.86,0.234111 2.5955,0.128761 5.5613,0.272473 6.5907,0.31936 1.0294,0.04689 2.3407,0.114063 2.9139,0.149281 5.4082,0.332292 7.1556,0.85213 9.0734,2.699326 1.9849,1.911767 3.4158,4.106573 3.9252,6.020379 0.323,1.21356 0.3576,2.414885 0.1042,3.615435 -0.3106,1.471077 -1.0746,3.035227 -2.2646,4.63664 -0.4211,0.566682 -0.8018,1.029077 -3.2372,3.931381 -0.5776,0.688319 -1.0501,1.272152 -1.05,1.297409 0,0.02526 0.5944,0.847385 1.3207,1.826954 2.1467,2.894995 3.8896,5.511665 4.5086,6.7691 0.666,1.352686 0.4816,1.803727 -0.81,1.981504 -0.5774,0.07947 -2.5256,0.06814 -3.0642,-0.01782 -1.3728,-0.219074 -2.3855,-0.75506 -3.4671,-1.834986 -0.7787,-0.777431 -1.4432,-1.631771 -2.6148,-3.361582 -0.3803,-0.561501 -0.8831,-1.279329 -1.1172,-1.595174 -2.0201,-2.725157 -3.5722,-3.726436 -5.4727,-3.530606 -1.0583,0.109047 -1.6853,0.358436 -2.1998,0.874968 -0.7021,0.704919 -0.9934,1.723027 -1.2285,4.29335 -0.2313,2.529389 -0.4533,3.557361 -0.9184,4.25269 -0.2293,0.342877 -0.5582,0.610337 -0.9146,0.743684 -0.5256,0.196649 -0.8133,0.220028 -3.0048,0.244224 l -2.0737,0.0229 z"
     style="fill:#e6e6e6;stroke-width:0.042538" />
  <path
     transform="scale(0.75000001)"
     id="path38"
     d="m 2242.9017,63.241105 c -0.1052,-0.0084 -0.4594,-0.03597 -0.7869,-0.06123 -5.9752,-0.460763 -11.7638,-2.77568 -16.526,-6.608892 -1.2338,-0.993092 -2.7806,-2.473244 -3.7827,-3.619821 -3.6383,-4.16238 -6.1054,-9.107487 -7.1882,-14.40784 -1.1021,-5.395038 -0.7524,-10.846611 1.0324,-16.091893 1.2212,-3.589163 3.1039,-7.03538 5.3217,-9.741198 0.5205,-0.635052 0.8938,-1.054425 1.6753,-1.882306 l 0.6124,-0.648704 2.5151,0.0014 2.5151,0.0014 -0.1695,0.136822 c -1.1175,0.901933 -2.8512,2.571308 -3.6983,3.56113 -2.3155,2.705503 -4.0812,5.72192 -5.2762,9.013556 -2.4199,6.665804 -2.3286,14.045999 0.2527,20.422727 2.4896,6.150055 7.1299,11.06085 13.2658,14.039083 3.03,1.470699 6.1394,2.33146 9.6205,2.663226 0.964,0.09186 3.5195,0.104482 4.4665,0.02205 2.8966,-0.252123 5.4631,-0.83924 8.0822,-1.848871 1.7128,-0.660223 3.704,-1.687899 5.296,-2.733218 6.9438,-4.559369 11.4903,-11.910681 12.4613,-20.148869 0.2539,-2.153909 0.2228,-4.725523 -0.084,-6.924234 -0.9824,-7.047359 -4.6062,-13.429577 -10.0722,-17.738813 l -0.566,-0.446175 2.1612,-0.01234 2.1611,-0.01234 0.872,0.884843 c 3.5753,3.627841 6.2713,7.696032 7.2809,10.986661 0.7397,2.410751 1.2482,5.209492 1.4452,7.954603 0.078,1.08921 0.067,3.6101 -0.021,4.679178 -0.3015,3.659791 -1.0819,6.887251 -2.4531,10.145309 -0.6195,1.471879 -1.7732,3.607469 -2.6772,4.955675 -2.518,3.755159 -5.7397,6.810105 -9.606,9.108721 -0.7559,0.449423 -2.3867,1.288021 -3.2024,1.64682 -3.1731,1.395671 -6.6317,2.270946 -10.376,2.625917 -0.6934,0.06573 -3.9956,0.122003 -4.5516,0.07756 z"
     style="fill:#e6e6e6;stroke-width:0.042538" />
  <path
     transform="scale(0.75000001)"
     id="path40"
     d="m 2261.621,10.048615 c -0.6295,-0.4585128 -1.5224,-1.0326973 -2.3108,-1.4858451 -4.0798,-2.3449062 -9.2571,-3.7825573 -14.4372,-4.00893 -0.6377,-0.027868 -2.3707,-0.014729 -2.893,0.021935 -2.1571,0.1514106 -3.9089,0.489914 -5.4767,1.0582893 -1.5046,0.5454531 -3.1631,1.3162991 -4.6048,2.1402471 -1.1079,0.6331436 -2.2184,1.3691405 -3.2542,2.1566346 l -0.3296,0.2506511 -2.517,-0.01063 -2.517,-0.01063 0.4113,-0.3854103 c 3.0553,-2.8625724 6.4865,-5.0529669 10.0675,-6.4269191 2.666,-1.0228495 5.2826,-1.5401121 8.8118,-1.7419321 0.7911,-0.045239 3.1245,-0.051269 3.9177,-0.010124 2.2896,0.1187569 4.2267,0.3526755 6.1893,0.7473663 1.1363,0.2285279 2.223,0.5010204 2.9245,0.7333738 3.0585,1.0129969 6.6781,3.390369 10.1829,6.688065 l 0.4204,0.3955804 -1.9624,0.01461 c -1.0794,0.008 -2.0634,0.01761 -2.1867,0.02127 l -0.2243,0.0067 z"
     style="fill:#d40000;stroke-width:0.021269" />
  <path
     transform="scale(0.75000001)"
     id="path42"
     d="m 346.18911,598.66009 c 0,-1.98621 5.61562,-88.40829 12.47915,-192.04908 6.86354,-103.64077 13.04568,-197.31705 13.73806,-208.16952 0.883,-13.83996 0.62604,-19.73175 -0.86056,-19.73175 -3.29866,0 -23.114,42.81305 -170.78781,369.00477 -17.31025,38.23602 -23.77388,50.665 -26.76606,51.46879 -5.7318,1.53969 -152.816434,1.13562 -161.066409,-0.44249 L 5.9577077,597.40796 133.24106,302.87542 260.52442,8.342872 403.2778,7.8493234 546.03118,7.355775 l -0.82446,7.231221 c -0.45345,3.977172 -5.53945,71.335363 -11.30222,149.684874 -5.76277,78.3495 -10.9933,148.30098 -11.62339,155.44773 -0.63011,7.14674 -0.39032,12.99408 0.53285,12.99408 1.93853,0 30.78616,-47.4007 127.11509,-208.86785 L 718.8364,8.342872 873.24648,7.8501562 c 118.60511,-0.3784637 154.41012,0.039944 154.41012,1.8043953 0,2.0293755 -67.81232,241.9176685 -141.38767,500.1636685 l -25.50315,89.51479 -87.05744,0.50097 c -82.33889,0.47382 -87.0022,0.31731 -86.03791,-2.88757 7.61679,-25.31465 116.813,-412.17313 117.74716,-417.15263 0.70773,-3.77256 0.71426,-6.85919 0.0145,-6.85919 -1.40411,0 -83.51341,123.77306 -203.30059,306.45901 l -77.87533,118.76671 -11.55029,0.99261 c -6.35267,0.54593 -46.41775,1.47091 -89.03353,2.05553 -74.86979,1.02709 -77.48324,0.94114 -77.48324,-2.54836 z"
     style="fill:#ff0000;stroke-width:1.92505" />
  <path
     transform="scale(0.75000001)"
     id="path44"
     d="m 947.27723,597.95829 c 0.51571,-1.36147 9.40546,-32.1452 19.75499,-68.40832 l 18.81734,-65.93294 37.74764,-0.1942 c 20.7613,-0.10684 97.1512,-0.75652 169.7555,-1.44378 l 132.0078,-1.24959 7.8693,-5.20853 c 6.138,-4.0626 8.7922,-7.66266 12.0639,-16.36292 3.6918,-9.81725 15.3514,-51.35127 15.3841,-54.80119 0.01,-0.71263 -2.6532,-3.96115 -5.9109,-7.21893 l -5.9233,-5.92322 -55.197,-0.14053 c -91.5097,-0.23293 -163.1682,-2.89943 -176.4752,-6.56685 -41.9315,-11.5563 -70.7664,-40.03933 -81.0478,-80.05891 -6.1101,-23.78292 -1.3815,-50.02939 24.2523,-134.61438 17.3496,-57.249276 26.078,-75.860505 44.8461,-95.623267 19.4775,-20.509764 36.6926,-31.809451 62.9762,-41.336396 l 12.4998,-4.5307735 220.8994,-0.5286034 c 121.4947,-0.2907319 220.8994,-0.087728 220.8994,0.4511198 0,1.4500484 -21.7618,50.1933791 -43.2115,96.7879101 l -18.8213,40.88469 -153.3071,0.56247 c -84.3189,0.30936 -156.2576,1.16175 -159.8637,1.89421 -3.6062,0.73245 -8.6246,3.27439 -11.152,5.64874 -10.0211,9.4143 -23.9031,48.57013 -21.1329,59.60761 0.6899,2.74847 2.8335,6.94746 4.7636,9.3311 5.0386,6.22234 22.9188,7.48018 130.3304,9.1686 l 90.4773,1.42223 19.2505,9.39967 c 16.4091,8.01225 21.6798,11.84816 35.7086,25.98817 25.751,25.95497 38.4058,55.30874 38.4058,89.08468 0,16.72513 -8.8969,54.47248 -26.9246,114.2336 -14.2932,47.38173 -19.7042,57.65844 -42.16,80.07163 -19.0986,19.06246 -32.6572,28.22719 -59.8937,40.48423 l -14.4378,6.49739 -222.0944,0.55033 c -180.35975,0.4469 -221.91823,0.0851 -221.15677,-1.92505 z"
     style="fill:#ff0000;stroke-width:1.92505" />
  <path
     transform="scale(0.75000001)"
     id="path46"
     d="m 1663.1747,597.32903 c -41.4105,-8.98539 -75.9241,-40.79495 -85.9257,-79.19383 -6.8584,-26.33096 -4.6315,-36.62839 47.1755,-218.14736 66.2367,-232.077305 61.8801,-220.088204 90.3004,-248.501573 19.3366,-19.331807 36.3497,-29.977984 61.0973,-38.232407 l 17.6094,-5.8735127 h 153.2077 153.2078 l 16.8751,7.2758697 c 33.0636,14.255659 54.0471,33.340786 68.6118,62.404607 10.2343,20.422661 12.6624,31.119826 13.2385,58.322506 0.3665,17.30771 -0.3578,21.95308 -7.1346,45.75886 l -7.5426,26.49557 -79.0503,-1.25519 c -43.4777,-0.69036 -79.235,-1.39212 -79.4607,-1.55944 -0.2257,-0.16729 0.8472,-5.02848 2.3844,-10.80252 7.7571,-29.1392 7.5662,-41.42754 -0.7065,-45.47003 -3.8464,-1.87953 -155.634,-3.32891 -167.3843,-1.59831 -9.6351,1.41908 -20.0405,9.64602 -25.3273,20.02491 -1.9387,3.80596 -6.6204,16.88206 -10.4039,29.058 -11.6546,37.50718 -54.3567,187.99897 -61.887,218.1037 -7.9844,31.92024 -7.7071,35.56326 3.3279,43.72178 l 5.9712,4.41475 82.8575,-1.37991 c 90.8952,-1.51379 88.7903,-1.21995 96.8533,-13.52007 2.2785,-3.47594 6.4923,-12.93824 9.364,-21.02731 l 5.2212,-14.70742 h 79.6399 c 43.802,0 79.64,0.49707 79.64,1.10461 0,2.55857 -14.1553,51.55735 -20.5358,71.08474 -10.5291,32.22442 -18.5618,47.27625 -34.1219,63.93778 -17.3601,18.58905 -34.5381,31.58432 -54.6245,41.32388 -13.5944,6.59168 -18.6512,7.96233 -34.6509,9.39224 -10.3035,0.92083 -83.2709,1.63627 -162.1498,1.58988 -114.5921,-0.0674 -145.8804,-0.61908 -155.6771,-2.7448 z"
     style="fill:#ff0000;stroke-width:1.92505" />
  <path
     transform="scale(0.75000001)"
     id="path48"
     d="M 2232.0271,31.217816 V 14.464253 l 1.0635,0.08317 c 0.5849,0.04574 4.2366,0.236482 8.115,0.423863 11.2147,0.541827 12.2319,0.7869 14.9213,3.594988 2.779,2.901671 3.9803,5.991161 3.4042,8.754511 -0.4548,2.180937 -1.4572,3.827692 -4.6855,7.697328 -1.0984,1.316554 -1.8408,2.348032 -1.7724,2.462349 0.065,0.108198 0.7799,1.115545 1.5892,2.238547 3.4197,4.74531 4.7262,6.997602 4.4059,7.595941 -0.2406,0.449705 -0.7678,0.53164 -2.9219,0.454155 -1.6681,-0.06001 -2.0283,-0.127851 -2.799,-0.527277 -1.2085,-0.626279 -2.4845,-1.983005 -4.2536,-4.522805 -1.8065,-2.593374 -3.3151,-4.228846 -4.4181,-4.789604 -1.5385,-0.782185 -3.9624,-0.447933 -4.7729,0.658186 -0.5419,0.739524 -0.7325,1.503809 -1.085,4.351759 -0.3429,2.769071 -0.6593,3.832678 -1.3127,4.412727 -0.4025,0.357231 -2.052,0.599874 -4.1593,0.611815 l -1.3187,0.0075 z"
     style="fill:#ff0000;stroke-width:0.170152" />
  <path
     transform="scale(0.75000001)"
     id="path50"
     d="m 2240.9601,62.997523 c -6.6173,-0.860639 -12.5613,-3.749424 -17.4171,-8.464701 -6.5689,-6.378744 -9.913,-15.024633 -9.3549,-24.186304 0.4182,-6.866365 3.5104,-14.066333 8.1889,-19.067712 l 1.0114,-1.081155 2.3201,0.0015 2.3201,0.0015 -1.4913,1.375966 c -4.36,4.023058 -7.3373,9.341 -8.6587,15.46598 -0.3382,1.567642 -0.3858,2.276633 -0.3883,5.785165 0,4.321604 0.1704,5.60496 1.1846,8.762825 0.5578,1.737026 2.385,5.473983 3.3414,6.833835 5.4074,7.688504 14.6788,12.243929 23.8824,11.734385 7.5018,-0.415332 14.0305,-3.397325 19.1618,-8.752251 7.1329,-7.443713 9.5564,-17.946535 6.4194,-27.819499 -0.7015,-2.207897 -2.4067,-5.623038 -3.7468,-7.503839 -1.0844,-1.521977 -3.726,-4.355277 -4.9898,-5.351917 l -0.6768,-0.533745 h 1.9937 1.9937 l 1.2665,1.325536 c 3.6656,3.836744 6.1209,7.713861 7.1372,11.269978 2.2502,7.873492 1.5008,16.61295 -2.0221,23.582696 -4.6242,9.148472 -12.8114,14.951217 -23.2449,16.474933 -1.6628,0.242848 -6.7888,0.334231 -8.2305,0.146729 z"
     style="fill:#ff0000;stroke-width:0.170152" />
</svg>
